PathFileType	3	(X/Y/Z)	C:\Users\koon_\Desktop\
DataRate	CameraRate	NumFrames	NumMarkers	Units	OrigDataRate	OrigDataStartFrame	OrigNumFrames
100.0	100.0	14	27	mm	100.0	3141	5024	
Frame#	Time	get:LFHD			get:RFHD			get:LBHD			get:RBHD			get:C7			get:T10			get:CLAV			get:STRN			get:RBAK			get:LSHO			get:LUPA			get:LELB			get:LFRA			get:LWRA			get:LWRB			get:LFIN			get:RSHO			get:RUPA			get:RELB			get:RFRA			get:RWRA			get:RWRB			get:RFIN			get:LASI			get:RASI			get:LPSI			get:RPSI			
		X1	Y1	Z1	X2	Y2	Z2	X3	Y3	Z3	X4	Y4	Z4	X5	Y5	Z5	X6	Y6	Z6	X7	Y7	Z7	X8	Y8	Z8	X9	Y9	Z9	X10	Y10	Z10	X11	Y11	Z11	X12	Y12	Z12	X13	Y13	Z13	X14	Y14	Z14	X15	Y15	Z15	X16	Y16	Z16	X17	Y17	Z17	X18	Y18	Z18	X19	Y19	Z19	X20	Y20	Z20	X21	Y21	Z21	X22	Y22	Z22	X23	Y23	Z23	X24	Y24	Z24	X25	Y25	Z25	X26	Y26	Z26	X27	Y27	Z27	
3141	31.4	44.731026	1556.1318	-23.222488	-96.349899	1515.479	-23.226189	46.245121	1543.0649	-160.58002	-98.310585	1497.1622	-156.22324	-21.31263	1340.2252	-192.37511	-39.509438	1127.5884	-239.27858	47.035534	1229.4509	-17.498293	48.784725	1072.2218	9.5836124	-124.80856	1269.7617	-185.2787	157.11708	1324.9288	-175.13747	215.94232	1112.8324	-213.49117	188.66219	1028.0367	-313.52939	217.64545	946.29175	-264.70392	184.61646	776.17126	-277.34827	217.53313	790.89392	-342.93402	214.16914	710.79675	-332.19241	-108.03749	1337.6541	-51.793953	-174.6743	1248.627	19.256916	-220.98204	1041.1958	97.402786	-115.69221	1073.8002	214.57314	-45.663696	1069.0374	282.17728	-79.711143	1004.311	287.42899	-26.107092	1038.5259	351.17612	150.68575	896.17749	-92.031525	-136.82074	903.659	-33.35598	24.037382	936.70984	-253.71964	-62.556946	933.57404	-239.37444
3142	31.41	44.805992	1555.9579	-22.661837	-96.386131	1515.6101	-23.472776	47.122128	1542.9432	-159.97031	-97.514961	1497.3158	-156.66815	-20.511738	1340.2809	-191.97725	-38.24873	1127.6395	-239.48735	46.190548	1229.2468	-16.950056	47.801022	1072.0248	10.026351	-123.90111	1269.8694	-186.23245	157.7477	1325.0125	-173.4269	217.81723	1113.3907	-212.20804	192.09615	1028.9961	-312.92294	221.20169	947.19714	-264.31766	189.69319	776.90503	-278.35052	222.71399	792.36481	-343.59717	220.2626	712.28143	-333.39886	-108.94351	1337.2726	-51.842514	-177.00334	1246.0046	17.003809	-226.05432	1036.0754	89.097565	-121.16394	1057.7037	208.40581	-53.306084	1046.1079	276.46194	-90.308037	983.21088	278.07419	-37.554253	1011.4856	344.38879	150.49025	896.02319	-91.146103	-136.84146	903.60522	-33.783394	24.779163	936.70203	-253.46712	-61.927467	933.56134	-239.67261
3143	31.42	44.846031	1555.8275	-22.029259	-96.432205	1515.7527	-23.684568	47.97657	1542.7637	-159.34497	-96.780609	1497.4803	-156.95522	-19.84029	1340.3374	-191.61522	-36.968426	1127.77	-239.79863	45.3769	1229.0336	-16.239853	46.806622	1071.7595	10.423244	-123.10315	1269.9741	-186.94804	158.33116	1325.0999	-171.57877	219.6684	1113.9397	-210.77701	195.50633	1029.9778	-312.22974	224.83923	948.12927	-263.67126	194.24353	777.79266	-279.45453	228.31152	793.85022	-344.08377	226.35661	713.73981	-334.44559	-109.88169	1336.8488	-51.851776	-179.19534	1243.0138	14.796455	-229.92018	1030.6185	77.411293	-127.08591	1040.9293	200.34908	-61.386593	1022.931	269.10059	-99.402359	960.78064	264.21524	-48.885757	984.16174	335.37936	150.6225	896.04114	-89.983932	-137.41229	903.66351	-34.451855	25.421213	936.63708	-253.07104	-61.354176	933.54248	-239.82123
3144	31.43	44.830498	1555.6908	-21.481434	-96.498337	1515.9285	-23.894482	48.804527	1542.5435	-158.75056	-96.069756	1497.5186	-157.06337	-19.166304	1340.4221	-191.15968	-35.779949	1127.8513	-239.8524	44.6446	1228.7809	-15.528155	45.79665	1071.4772	10.850073	-122.30569	1270.1055	-187.70642	158.90105	1325.2094	-169.76714	221.50818	1114.4891	-209.25124	198.8698	1030.9587	-311.29221	228.4312	949.12122	-263.04352	198.92598	778.69586	-280.49515	233.72124	795.46698	-344.4975	232.40179	715.29944	-335.42068	-110.83144	1336.3287	-51.733673	-181.33015	1239.8741	12.456604	-233.84215	1025.4448	66.662125	-133.63704	1024.5918	192.01201	-70.419449	999.90735	260.80945	-110.33731	939.53546	250.94324	-60.10585	956.56299	324.18002	150.42137	895.86926	-88.946243	-137.88847	903.67645	-35.142632	26.074286	936.64264	-252.81509	-60.747433	933.56152	-240.03455
3145	31.44	44.828758	1555.5483	-20.89275	-96.56752	1516.1285	-24.089321	49.572807	1542.3158	-158.13335	-95.343689	1497.6101	-157.44255	-18.524317	1340.5278	-190.65254	-34.527267	1128.0238	-240.12033	43.814507	1228.4614	-14.783194	44.823589	1071.1503	11.216722	-121.55702	1270.1799	-188.2917	159.44038	1325.3323	-167.7874	223.34937	1115.0447	-207.46649	202.14459	1032.0377	-310.29681	231.81076	950.08502	-262.33722	203.61873	779.60986	-281.30267	239.04851	797.14636	-344.83704	238.40796	716.95264	-336.23004	-111.8253	1335.7123	-51.569035	-183.35596	1236.5607	9.9702883	-237.39825	1020.3972	55.512867	-140.57643	1008.5029	182.86992	-79.591988	977.35419	251.10867	-121.50939	919.23535	236.61258	-71.661118	929.526	311.56757	150.21574	895.74561	-87.999878	-138.37004	903.71167	-35.695488	26.791634	936.60968	-252.4501	-60.089958	933.59576	-240.2552
3146	31.45	44.808598	1555.4059	-20.279034	-96.641533	1516.3347	-24.219259	50.318718	1542.0251	-157.50174	-94.675964	1497.6393	-157.54936	-17.904531	1340.6136	-190.08543	-33.270668	1128.1602	-240.18039	42.981934	1228.1521	-14.028161	43.839542	1070.8102	11.706205	-120.86914	1270.2461	-188.77136	159.99324	1325.5203	-165.68797	225.15361	1115.6558	-205.62054	205.26328	1033.0487	-309.11877	235.07199	951.06104	-261.43527	208.38892	780.66125	-281.79211	244.2581	798.883	-344.87766	244.30736	718.63721	-336.92847	-112.84342	1335.0128	-51.39106	-185.19409	1233.3457	7.3604574	-240.76793	1015.7851	44.366833	-147.64798	992.82202	172.67195	-88.970421	955.36194	240.00467	-132.73923	899.83795	220.98747	-83.693077	903.0202	296.98291	149.94763	895.58734	-86.880463	-138.95074	903.72034	-36.391254	27.509859	936.64343	-252.24892	-59.448479	933.57312	-240.41991
3147	31.46	44.788067	1555.278	-19.705339	-96.766502	1516.5509	-24.333282	51.067387	1541.7015	-156.81277	-94.088264	1497.6709	-157.63858	-17.256542	1340.7559	-189.45512	-32.063992	1128.339	-240.30626	42.073578	1227.8074	-13.228275	42.853863	1070.4524	12.220262	-120.10417	1270.368	-189.33615	160.45107	1325.7157	-163.59541	226.90022	1116.2819	-203.6848	208.25212	1034.0903	-307.76691	238.27652	952.10107	-260.34702	211.933	781.57819	-282.95441	249.27861	800.70276	-344.78937	249.9292	720.30438	-337.36615	-113.90054	1334.3009	-51.2043	-186.73227	1230.1501	4.5951424	-243.84489	1011.2451	32.088398	-154.59451	977.67273	161.33841	-98.336372	933.93323	227.46556	-143.90427	881.51929	204.01117	-95.928009	878.16748	280.78705	149.68176	895.43939	-85.865181	-141.84053	903.92499	-39.607616	28.21117	936.55383	-251.73672	-58.852432	933.56403	-240.51071
3148	31.47	44.700279	1555.184	-19.054501	-96.768913	1516.6276	-25.219191	51.751312	1541.2987	-156.13261	-93.54644	1497.6217	-157.62715	-16.715055	1340.8087	-188.74356	-30.727257	1128.4569	-240.22269	40.931145	1227.4874	-12.020881	41.917233	1070.0613	12.817091	-119.25117	1270.6177	-190.18163	160.84312	1325.9513	-161.45729	228.53816	1116.9197	-201.65271	211.10629	1035.1118	-306.30203	241.33716	953.10114	-259.1777	216.25583	782.66272	-283.21176	254.12595	802.47699	-344.53201	255.3688	722.05353	-337.5759	-114.9492	1333.4753	-51.132259	-188.07117	1227.2177	1.7465378	-246.74112	1007.2742	19.773621	-161.35983	963.08856	148.96997	-107.79803	913.38092	213.39223	-154.97813	864.33209	185.84326	-108.64896	854.61194	263.10352	149.75847	895.2489	-84.883606	-140.78214	903.75659	-38.998669	28.961798	936.53473	-251.31104	-58.179523	933.62372	-240.66953
3149	31.48	44.610245	1555.0863	-18.470022	-96.96402	1516.9237	-25.389164	52.410995	1540.8378	-155.42787	-92.982437	1497.5127	-157.5551	-16.15106	1340.9479	-188.03456	-29.397789	1128.677	-240.20866	40.105652	1227.1578	-11.357189	41.081322	1069.9171	13.479268	-117.99249	1271.0461	-191.40788	161.25606	1326.1807	-159.18925	230.11327	1117.5549	-199.50601	213.7673	1036.1411	-304.6618	244.14644	954.11658	-257.81717	220.3844	783.76355	-283.25079	259.01718	804.2821	-343.79941	260.48724	723.75317	-337.66257	-116.0177	1332.6627	-51.071606	-189.68521	1224.2421	-2.4166236	-249.3452	1003.8781	7.3610988	-168.01183	949.22119	135.52252	-117.82221	893.93628	197.18517	-166.14844	849.38531	168.50388	-121.62685	832.96088	244.07101	149.63396	895.10718	-83.671791	-142.16547	903.73236	-40.243874	29.674129	936.49011	-250.80296	-57.507076	933.61993	-240.77829
3150	31.49	44.423859	1554.9884	-17.802937	-97.386475	1517.42	-24.736267	52.992592	1540.2996	-154.71365	-92.502449	1497.4523	-157.59818	-15.600413	1341.0162	-187.27063	-28.128222	1128.873	-240.18159	39.47934	1227.0793	-10.571943	40.028969	1069.3585	13.647156	-117.35938	1271.1462	-191.93401	161.57867	1326.412	-156.82193	231.77382	1118.2164	-197.12709	216.27545	1037.1443	-302.87384	246.84438	955.09283	-256.36737	224.25609	784.77539	-283.17374	263.16486	806.01672	-343.28607	265.30276	725.46216	-337.5618	-117.1321	1331.9335	-51.098637	-191.3119	1221.5107	-5.8917499	-251.70201	1001.0032	-5.2943316	-174.61121	936.2243	121.04393	-127.62378	875.73474	179.87126	-176.77911	834.74072	147.73819	-134.89946	812.6366	223.25267	149.4426	894.90308	-82.599823	-142.63092	903.78442	-40.953987	30.434137	936.47925	-250.30309	-56.799259	933.6499	-240.86475
3151	31.5	44.186356	1554.9135	-17.160322	-97.487877	1517.6062	-25.500448	53.553471	1539.7859	-153.87624	-92.073875	1497.3864	-157.68274	-14.927877	1341.131	-186.4897	-26.833065	1129.0109	-240.00327	38.60186	1226.7064	-9.9084549	38.992134	1069.0013	14.30494	-116.76524	1271.1332	-192.20053	161.89697	1326.6556	-154.40668	233.10248	1118.7924	-194.72809	218.58542	1038.088	-301.01349	249.3233	956.04596	-254.70164	227.71271	785.71973	-282.90033	266.96716	807.69208	-342.54788	269.75821	727.14404	-337.33917	-118.23815	1331.3036	-51.283463	-193.06966	1219.0708	-9.6778183	-253.57196	998.7547	-17.988461	-181.10498	924.08777	105.84228	-137.46065	858.82019	161.51875	-187.11491	820.3064	123.53588	-148.10664	793.7793	200.96304	149.19568	894.64941	-81.387627	-143.13284	903.73657	-41.63118	31.222059	936.56079	-249.98015	-56.076397	933.7146	-241.04433
3152	31.51	43.903046	1554.8859	-16.522137	-98.066818	1518.0441	-24.453238	54.035679	1539.2362	-153.14845	-91.711334	1497.2234	-157.54108	-14.315777	1341.2429	-185.69821	-25.443577	1129.3073	-239.94327	37.114269	1226.1896	-8.968606	37.832287	1068.6351	15.025612	-116.2966	1271.0959	-192.4185	162.21149	1326.8524	-151.81779	234.23921	1119.2847	-192.2702	220.73781	1039.0208	-298.91879	251.59705	956.95361	-252.9653	230.78212	786.65869	-282.40637	270.4361	809.23212	-341.62375	273.76102	728.74591	-336.854	-119.32929	1330.7961	-51.552338	-194.80197	1216.9481	-13.732137	-254.97615	997.112	-30.600557	-187.51427	912.99457	89.924133	-147.27194	843.29388	142.20641	-196.95236	808.48389	100.79508	-161.16298	776.45172	177.51965	149.0461	894.45941	-80.255577	-143.59137	903.78278	-42.406471	32.131733	936.67041	-249.62715	-55.324528	933.76715	-241.21593
3153	31.52	43.541641	1554.8292	-15.77775	-98.234657	1518.2946	-25.529037	54.444569	1538.652	-152.3342	-91.381111	1497.09	-157.47462	-13.591419	1341.3439	-184.97542	-24.072012	1129.5404	-239.84894	35.851334	1225.8394	-7.9764566	36.48613	1068.3033	15.693588	-115.39281	1271.2219	-193.18513	162.52817	1326.993	-149.10779	235.3152	1119.6829	-189.52419	222.75018	1039.8505	-296.65628	253.5533	957.75336	-251.02893	233.6244	787.54578	-281.54337	273.51706	810.69513	-340.5387	277.36542	730.2406	-336.18323	-120.4502	1330.3577	-52.126217	-196.90746	1215.2031	-18.148359	-255.98595	996.04401	-43.257526	-193.66904	902.92181	73.67144	-157.08485	829.19641	122.19016	-206.49022	798.30493	77.681381	-174.03833	761.39917	153.7589	148.81914	894.21844	-78.995399	-143.69527	903.54822	-42.280682	32.963764	936.71338	-249.20528	-54.518143	933.81177	-241.33337
3154	31.53	43.125793	1554.7678	-15.049417	-98.917801	1518.8535	-24.686634	54.850761	1538.0985	-151.44518	-91.103477	1496.9912	-157.39383	-12.852476	1341.4612	-184.24399	-22.545855	1129.8123	-239.73537	34.425945	1225.5223	-6.7787323	35.109745	1068.057	16.52932	-114.41958	1271.3207	-193.97357	162.84552	1327.1218	-146.24704	236.26369	1120.0154	-186.56886	224.59099	1040.5654	-294.22623	255.33464	958.38037	-248.80312	234.59531	787.64111	-281.69672	276.24207	812.02869	-339.16452	280.47629	731.53931	-335.29657	-121.5944	1330.0222	-52.721725	-199.19598	1213.8235	-22.728386	-256.6416	995.43793	-56.178032	-199.67191	893.98181	56.973866	-166.63358	816.52338	101.5618	-215.73524	789.79309	54.254768	-186.56343	747.69818	128.88614	148.60619	894.02765	-77.662048	-142.96043	903.81561	-41.75499	33.867805	936.61639	-248.44077	-53.664722	933.88177	-241.40027
